<mxfile host="Electron" modified="2023-06-02T21:05:43.609Z" agent="Mozilla/5.0 (Windows NT 10.0; Win64; x64) AppleWebKit/537.36 (KHTML, like Gecko) draw.io/21.2.8 Chrome/112.0.5615.165 Electron/24.2.0 Safari/537.36" etag="ooGYyzreTG9WiPmnPUyH" version="21.2.8" type="device">
  <diagram name="Page-1" id="13e1069c-82ec-6db2-03f1-153e76fe0fe0">
    <mxGraphModel dx="1036" dy="656" grid="1" gridSize="10" guides="1" tooltips="1" connect="1" arrows="1" fold="1" page="1" pageScale="1" pageWidth="1100" pageHeight="850" background="none" math="0" shadow="0">
      <root>
        <mxCell id="0" />
        <mxCell id="1" parent="0" />
        <mxCell id="7baba1c4bc27f4b0-2" value="OS" style="shape=umlLifeline;perimeter=lifelinePerimeter;whiteSpace=wrap;html=1;container=1;collapsible=0;recursiveResize=0;outlineConnect=0;rounded=1;shadow=0;comic=0;labelBackgroundColor=none;strokeWidth=1;fontFamily=Verdana;fontSize=12;align=center;fillColor=#dae8fc;strokeColor=#6c8ebf;" parent="1" vertex="1">
          <mxGeometry x="240" y="80" width="100" height="760" as="geometry" />
        </mxCell>
        <mxCell id="PU4CuzWwjXZ-5LBa22X8-18" value="" style="html=1;points=[];perimeter=orthogonalPerimeter;rounded=0;shadow=0;comic=0;labelBackgroundColor=none;strokeWidth=1;fontFamily=Verdana;fontSize=12;align=center;fillColor=#f8cecc;strokeColor=#b85450;" parent="7baba1c4bc27f4b0-2" vertex="1">
          <mxGeometry x="45" y="250" width="10" height="150" as="geometry" />
        </mxCell>
        <mxCell id="PU4CuzWwjXZ-5LBa22X8-28" style="edgeStyle=orthogonalEdgeStyle;rounded=0;orthogonalLoop=1;jettySize=auto;html=1;dashed=1;" parent="7baba1c4bc27f4b0-2" source="PU4CuzWwjXZ-5LBa22X8-24" edge="1">
          <mxGeometry relative="1" as="geometry">
            <mxPoint x="55" y="380" as="targetPoint" />
            <Array as="points">
              <mxPoint x="110" y="360" />
              <mxPoint x="110" y="380" />
              <mxPoint x="55" y="380" />
            </Array>
          </mxGeometry>
        </mxCell>
        <mxCell id="PU4CuzWwjXZ-5LBa22X8-35" value="init done" style="edgeLabel;html=1;align=center;verticalAlign=middle;resizable=0;points=[];" parent="PU4CuzWwjXZ-5LBa22X8-28" vertex="1" connectable="0">
          <mxGeometry x="0.3756" y="1" relative="1" as="geometry">
            <mxPoint x="-3" y="9" as="offset" />
          </mxGeometry>
        </mxCell>
        <mxCell id="PU4CuzWwjXZ-5LBa22X8-24" value="" style="html=1;points=[];perimeter=orthogonalPerimeter;rounded=0;shadow=0;comic=0;labelBackgroundColor=none;strokeWidth=1;fontFamily=Verdana;fontSize=12;align=center;fillColor=#f8cecc;strokeColor=#b85450;" parent="7baba1c4bc27f4b0-2" vertex="1">
          <mxGeometry x="51" y="342" width="10" height="30" as="geometry" />
        </mxCell>
        <mxCell id="PU4CuzWwjXZ-5LBa22X8-25" style="edgeStyle=orthogonalEdgeStyle;rounded=0;orthogonalLoop=1;jettySize=auto;html=1;" parent="7baba1c4bc27f4b0-2" source="7baba1c4bc27f4b0-2" target="PU4CuzWwjXZ-5LBa22X8-24" edge="1">
          <mxGeometry relative="1" as="geometry">
            <Array as="points">
              <mxPoint x="110" y="330" />
              <mxPoint x="110" y="350" />
            </Array>
          </mxGeometry>
        </mxCell>
        <mxCell id="PU4CuzWwjXZ-5LBa22X8-26" value="init os database" style="edgeLabel;html=1;align=center;verticalAlign=middle;resizable=0;points=[];" parent="PU4CuzWwjXZ-5LBa22X8-25" vertex="1" connectable="0">
          <mxGeometry x="-0.404" y="-1" relative="1" as="geometry">
            <mxPoint x="15" y="-10" as="offset" />
          </mxGeometry>
        </mxCell>
        <mxCell id="PU4CuzWwjXZ-5LBa22X8-37" value="" style="endArrow=classic;html=1;rounded=0;exitX=0.2;exitY=0.82;exitDx=0;exitDy=0;exitPerimeter=0;dashed=1;" parent="7baba1c4bc27f4b0-2" target="7baba1c4bc27f4b0-9" edge="1">
          <mxGeometry width="50" height="50" relative="1" as="geometry">
            <mxPoint x="51" y="391" as="sourcePoint" />
            <mxPoint x="-106" y="390" as="targetPoint" />
            <Array as="points">
              <mxPoint x="4" y="390" />
            </Array>
          </mxGeometry>
        </mxCell>
        <mxCell id="PU4CuzWwjXZ-5LBa22X8-38" value="init done" style="edgeLabel;html=1;align=center;verticalAlign=middle;resizable=0;points=[];" parent="PU4CuzWwjXZ-5LBa22X8-37" vertex="1" connectable="0">
          <mxGeometry x="-0.1941" y="1" relative="1" as="geometry">
            <mxPoint x="-13" as="offset" />
          </mxGeometry>
        </mxCell>
        <mxCell id="PU4CuzWwjXZ-5LBa22X8-39" value="" style="html=1;points=[];perimeter=orthogonalPerimeter;rounded=0;shadow=0;comic=0;labelBackgroundColor=none;strokeWidth=1;fontFamily=Verdana;fontSize=12;align=center;fillColor=#f8cecc;strokeColor=#b85450;" parent="7baba1c4bc27f4b0-2" vertex="1">
          <mxGeometry x="45" y="430" width="10" height="200" as="geometry" />
        </mxCell>
        <mxCell id="PU4CuzWwjXZ-5LBa22X8-40" value="create task&lt;br&gt;LED1" style="endArrow=classic;html=1;rounded=0;" parent="7baba1c4bc27f4b0-2" source="7baba1c4bc27f4b0-9" edge="1">
          <mxGeometry width="50" height="50" relative="1" as="geometry">
            <mxPoint x="-74" y="450" as="sourcePoint" />
            <mxPoint x="51" y="450" as="targetPoint" />
            <Array as="points">
              <mxPoint x="-10" y="450" />
            </Array>
          </mxGeometry>
        </mxCell>
        <mxCell id="PU4CuzWwjXZ-5LBa22X8-41" value="" style="html=1;points=[];perimeter=orthogonalPerimeter;rounded=0;shadow=0;comic=0;labelBackgroundColor=none;strokeWidth=1;fontFamily=Verdana;fontSize=12;align=center;fillColor=#f8cecc;strokeColor=#b85450;" parent="7baba1c4bc27f4b0-2" vertex="1">
          <mxGeometry x="51" y="450" width="10" height="40" as="geometry" />
        </mxCell>
        <mxCell id="PU4CuzWwjXZ-5LBa22X8-53" value="" style="endArrow=classic;html=1;rounded=0;exitX=0.2;exitY=0.82;exitDx=0;exitDy=0;exitPerimeter=0;dashed=1;" parent="7baba1c4bc27f4b0-2" target="7baba1c4bc27f4b0-9" edge="1">
          <mxGeometry width="50" height="50" relative="1" as="geometry">
            <mxPoint x="55" y="511" as="sourcePoint" />
            <mxPoint x="-81" y="510" as="targetPoint" />
            <Array as="points">
              <mxPoint x="8" y="510" />
            </Array>
          </mxGeometry>
        </mxCell>
        <mxCell id="PU4CuzWwjXZ-5LBa22X8-54" value="create done" style="edgeLabel;html=1;align=center;verticalAlign=middle;resizable=0;points=[];" parent="PU4CuzWwjXZ-5LBa22X8-53" vertex="1" connectable="0">
          <mxGeometry x="-0.1941" y="1" relative="1" as="geometry">
            <mxPoint x="-13" as="offset" />
          </mxGeometry>
        </mxCell>
        <mxCell id="PU4CuzWwjXZ-5LBa22X8-55" value="" style="endArrow=classic;html=1;rounded=0;exitX=0.2;exitY=0.82;exitDx=0;exitDy=0;exitPerimeter=0;dashed=1;" parent="7baba1c4bc27f4b0-2" edge="1">
          <mxGeometry width="50" height="50" relative="1" as="geometry">
            <mxPoint x="51" y="621" as="sourcePoint" />
            <mxPoint x="-89" y="620" as="targetPoint" />
            <Array as="points">
              <mxPoint x="4" y="620" />
            </Array>
          </mxGeometry>
        </mxCell>
        <mxCell id="PU4CuzWwjXZ-5LBa22X8-56" value="create done" style="edgeLabel;html=1;align=center;verticalAlign=middle;resizable=0;points=[];" parent="PU4CuzWwjXZ-5LBa22X8-55" vertex="1" connectable="0">
          <mxGeometry x="-0.1941" y="1" relative="1" as="geometry">
            <mxPoint x="-13" as="offset" />
          </mxGeometry>
        </mxCell>
        <mxCell id="PU4CuzWwjXZ-5LBa22X8-59" value="enable timer interrupt" style="endArrow=classic;html=1;rounded=0;" parent="7baba1c4bc27f4b0-2" target="7baba1c4bc27f4b0-3" edge="1">
          <mxGeometry width="50" height="50" relative="1" as="geometry">
            <mxPoint x="51" y="680" as="sourcePoint" />
            <mxPoint x="187" y="680" as="targetPoint" />
            <Array as="points">
              <mxPoint x="126" y="680" />
            </Array>
          </mxGeometry>
        </mxCell>
        <mxCell id="PU4CuzWwjXZ-5LBa22X8-57" value="" style="html=1;points=[];perimeter=orthogonalPerimeter;rounded=0;shadow=0;comic=0;labelBackgroundColor=none;strokeWidth=1;fontFamily=Verdana;fontSize=12;align=center;fillColor=#f8cecc;strokeColor=#b85450;" parent="7baba1c4bc27f4b0-2" vertex="1">
          <mxGeometry x="45" y="650" width="10" height="80" as="geometry" />
        </mxCell>
        <mxCell id="7baba1c4bc27f4b0-3" value="timer" style="shape=umlLifeline;perimeter=lifelinePerimeter;whiteSpace=wrap;html=1;container=1;collapsible=0;recursiveResize=0;outlineConnect=0;rounded=1;shadow=0;comic=0;labelBackgroundColor=none;strokeWidth=1;fontFamily=Verdana;fontSize=12;align=center;fillColor=#dae8fc;strokeColor=#6c8ebf;" parent="1" vertex="1">
          <mxGeometry x="400" y="80" width="100" height="760" as="geometry" />
        </mxCell>
        <mxCell id="PU4CuzWwjXZ-5LBa22X8-20" value="" style="html=1;points=[];perimeter=orthogonalPerimeter;rounded=0;shadow=0;comic=0;labelBackgroundColor=none;strokeWidth=1;fontFamily=Verdana;fontSize=12;align=center;fillColor=#f8cecc;strokeColor=#b85450;" parent="7baba1c4bc27f4b0-3" vertex="1">
          <mxGeometry x="45" y="260" width="10" height="50" as="geometry" />
        </mxCell>
        <mxCell id="PU4CuzWwjXZ-5LBa22X8-58" value="" style="html=1;points=[];perimeter=orthogonalPerimeter;rounded=0;shadow=0;comic=0;labelBackgroundColor=none;strokeWidth=1;fontFamily=Verdana;fontSize=12;align=center;fillColor=#f8cecc;strokeColor=#b85450;" parent="7baba1c4bc27f4b0-3" vertex="1">
          <mxGeometry x="45" y="670" width="10" height="50" as="geometry" />
        </mxCell>
        <mxCell id="PU4CuzWwjXZ-5LBa22X8-60" value="" style="endArrow=classic;html=1;rounded=0;exitX=0.2;exitY=0.82;exitDx=0;exitDy=0;exitPerimeter=0;dashed=1;entryX=1.007;entryY=0.751;entryDx=0;entryDy=0;entryPerimeter=0;" parent="7baba1c4bc27f4b0-3" target="PU4CuzWwjXZ-5LBa22X8-57" edge="1">
          <mxGeometry width="50" height="50" relative="1" as="geometry">
            <mxPoint x="45" y="711" as="sourcePoint" />
            <mxPoint x="-95" y="710" as="targetPoint" />
            <Array as="points">
              <mxPoint x="-2" y="710" />
            </Array>
          </mxGeometry>
        </mxCell>
        <mxCell id="PU4CuzWwjXZ-5LBa22X8-61" value="enable done" style="edgeLabel;html=1;align=center;verticalAlign=middle;resizable=0;points=[];" parent="PU4CuzWwjXZ-5LBa22X8-60" vertex="1" connectable="0">
          <mxGeometry x="-0.1941" y="1" relative="1" as="geometry">
            <mxPoint x="-13" as="offset" />
          </mxGeometry>
        </mxCell>
        <mxCell id="7baba1c4bc27f4b0-4" value="button" style="shape=umlLifeline;perimeter=lifelinePerimeter;whiteSpace=wrap;html=1;container=1;collapsible=0;recursiveResize=0;outlineConnect=0;rounded=1;shadow=0;comic=0;labelBackgroundColor=none;strokeWidth=1;fontFamily=Verdana;fontSize=12;align=center;fillColor=#dae8fc;strokeColor=#6c8ebf;" parent="1" vertex="1">
          <mxGeometry x="540" y="80" width="100" height="770" as="geometry" />
        </mxCell>
        <mxCell id="PU4CuzWwjXZ-5LBa22X8-11" value="" style="html=1;points=[];perimeter=orthogonalPerimeter;rounded=0;shadow=0;comic=0;labelBackgroundColor=none;strokeWidth=1;fontFamily=Verdana;fontSize=12;align=center;fillColor=#f8cecc;strokeColor=#b85450;" parent="7baba1c4bc27f4b0-4" vertex="1">
          <mxGeometry x="45" y="160" width="10" height="80" as="geometry" />
        </mxCell>
        <mxCell id="7baba1c4bc27f4b0-5" value="led" style="shape=umlLifeline;perimeter=lifelinePerimeter;whiteSpace=wrap;html=1;container=1;collapsible=0;recursiveResize=0;outlineConnect=0;rounded=1;shadow=0;comic=0;labelBackgroundColor=none;strokeWidth=1;fontFamily=Verdana;fontSize=12;align=center;fillColor=#dae8fc;strokeColor=#6c8ebf;" parent="1" vertex="1">
          <mxGeometry x="690" y="80" width="100" height="770" as="geometry" />
        </mxCell>
        <mxCell id="PU4CuzWwjXZ-5LBa22X8-2" value="" style="html=1;points=[];perimeter=orthogonalPerimeter;rounded=0;shadow=0;comic=0;labelBackgroundColor=none;strokeWidth=1;fontFamily=Verdana;fontSize=12;align=center;fillColor=#f8cecc;strokeColor=#b85450;" parent="7baba1c4bc27f4b0-5" vertex="1">
          <mxGeometry x="50" y="65" width="10" height="80" as="geometry" />
        </mxCell>
        <mxCell id="7baba1c4bc27f4b0-6" value="DIO" style="shape=umlLifeline;perimeter=lifelinePerimeter;whiteSpace=wrap;html=1;container=1;collapsible=0;recursiveResize=0;outlineConnect=0;rounded=1;shadow=0;comic=0;labelBackgroundColor=none;strokeWidth=1;fontFamily=Verdana;fontSize=12;align=center;fillColor=#dae8fc;strokeColor=#6c8ebf;" parent="1" vertex="1">
          <mxGeometry x="840" y="80" width="100" height="770" as="geometry" />
        </mxCell>
        <mxCell id="PU4CuzWwjXZ-5LBa22X8-4" value="" style="html=1;points=[];perimeter=orthogonalPerimeter;rounded=0;shadow=0;comic=0;labelBackgroundColor=none;strokeWidth=1;fontFamily=Verdana;fontSize=12;align=center;fillColor=#f8cecc;strokeColor=#b85450;" parent="7baba1c4bc27f4b0-6" vertex="1">
          <mxGeometry x="45" y="80" width="10" height="50" as="geometry" />
        </mxCell>
        <mxCell id="PU4CuzWwjXZ-5LBa22X8-5" value="init dio" style="endArrow=classic;html=1;rounded=0;" parent="7baba1c4bc27f4b0-6" edge="1">
          <mxGeometry width="50" height="50" relative="1" as="geometry">
            <mxPoint x="-85" y="80" as="sourcePoint" />
            <mxPoint x="40" y="80" as="targetPoint" />
          </mxGeometry>
        </mxCell>
        <mxCell id="PU4CuzWwjXZ-5LBa22X8-13" value="" style="html=1;points=[];perimeter=orthogonalPerimeter;rounded=0;shadow=0;comic=0;labelBackgroundColor=none;strokeWidth=1;fontFamily=Verdana;fontSize=12;align=center;fillColor=#f8cecc;strokeColor=#b85450;" parent="7baba1c4bc27f4b0-6" vertex="1">
          <mxGeometry x="45" y="170" width="10" height="50" as="geometry" />
        </mxCell>
        <mxCell id="PU4CuzWwjXZ-5LBa22X8-14" value="init dio" style="endArrow=classic;html=1;rounded=0;" parent="7baba1c4bc27f4b0-6" source="7baba1c4bc27f4b0-4" edge="1">
          <mxGeometry x="-0.0012" width="50" height="50" relative="1" as="geometry">
            <mxPoint x="-70" y="180" as="sourcePoint" />
            <mxPoint x="55" y="180" as="targetPoint" />
            <mxPoint as="offset" />
          </mxGeometry>
        </mxCell>
        <mxCell id="PU4CuzWwjXZ-5LBa22X8-15" value="" style="endArrow=classic;html=1;rounded=0;exitX=0.117;exitY=1.003;exitDx=0;exitDy=0;exitPerimeter=0;dashed=1;" parent="7baba1c4bc27f4b0-6" target="7baba1c4bc27f4b0-4" edge="1">
          <mxGeometry width="50" height="50" relative="1" as="geometry">
            <mxPoint x="45" y="220" as="sourcePoint" />
            <mxPoint x="-91" y="220" as="targetPoint" />
          </mxGeometry>
        </mxCell>
        <mxCell id="PU4CuzWwjXZ-5LBa22X8-16" value="init done" style="edgeLabel;html=1;align=center;verticalAlign=middle;resizable=0;points=[];" parent="PU4CuzWwjXZ-5LBa22X8-15" vertex="1" connectable="0">
          <mxGeometry x="-0.1941" y="1" relative="1" as="geometry">
            <mxPoint x="-24" y="-1" as="offset" />
          </mxGeometry>
        </mxCell>
        <mxCell id="7baba1c4bc27f4b0-8" value="application" style="shape=umlLifeline;perimeter=lifelinePerimeter;whiteSpace=wrap;html=1;container=1;collapsible=0;recursiveResize=0;outlineConnect=0;rounded=1;shadow=0;comic=0;labelBackgroundColor=none;strokeWidth=1;fontFamily=Verdana;fontSize=12;align=center;fillColor=#dae8fc;strokeColor=#6c8ebf;" parent="1" vertex="1">
          <mxGeometry x="100" y="80" width="100" height="750" as="geometry" />
        </mxCell>
        <mxCell id="7baba1c4bc27f4b0-9" value="" style="html=1;points=[];perimeter=orthogonalPerimeter;rounded=0;shadow=0;comic=0;labelBackgroundColor=none;strokeWidth=1;fontFamily=Verdana;fontSize=12;align=center;fillColor=#f8cecc;strokeColor=#b85450;" parent="7baba1c4bc27f4b0-8" vertex="1">
          <mxGeometry x="45" y="70" width="10" height="680" as="geometry" />
        </mxCell>
        <mxCell id="PU4CuzWwjXZ-5LBa22X8-19" value="init os" style="endArrow=classic;html=1;rounded=0;" parent="7baba1c4bc27f4b0-8" edge="1">
          <mxGeometry width="50" height="50" relative="1" as="geometry">
            <mxPoint x="55" y="260" as="sourcePoint" />
            <mxPoint x="180" y="260" as="targetPoint" />
          </mxGeometry>
        </mxCell>
        <mxCell id="PU4CuzWwjXZ-5LBa22X8-52" value="run scheduler" style="endArrow=classic;html=1;rounded=0;" parent="7baba1c4bc27f4b0-8" edge="1">
          <mxGeometry width="50" height="50" relative="1" as="geometry">
            <mxPoint x="55" y="660" as="sourcePoint" />
            <mxPoint x="191" y="660" as="targetPoint" />
            <Array as="points">
              <mxPoint x="130" y="660" />
            </Array>
          </mxGeometry>
        </mxCell>
        <mxCell id="PU4CuzWwjXZ-5LBa22X8-62" value="" style="endArrow=classic;html=1;rounded=0;exitX=0.2;exitY=0.82;exitDx=0;exitDy=0;exitPerimeter=0;dashed=1;entryX=1.007;entryY=0.751;entryDx=0;entryDy=0;entryPerimeter=0;" parent="7baba1c4bc27f4b0-8" edge="1">
          <mxGeometry width="50" height="50" relative="1" as="geometry">
            <mxPoint x="195" y="721" as="sourcePoint" />
            <mxPoint x="45" y="720" as="targetPoint" />
            <Array as="points">
              <mxPoint x="148" y="720" />
            </Array>
          </mxGeometry>
        </mxCell>
        <mxCell id="PU4CuzWwjXZ-5LBa22X8-63" value="success" style="edgeLabel;html=1;align=center;verticalAlign=middle;resizable=0;points=[];" parent="PU4CuzWwjXZ-5LBa22X8-62" vertex="1" connectable="0">
          <mxGeometry x="-0.1941" y="1" relative="1" as="geometry">
            <mxPoint x="-13" as="offset" />
          </mxGeometry>
        </mxCell>
        <mxCell id="PU4CuzWwjXZ-5LBa22X8-46" value="create task&lt;br&gt;LED2" style="endArrow=classic;html=1;rounded=0;" parent="7baba1c4bc27f4b0-8" edge="1">
          <mxGeometry width="50" height="50" relative="1" as="geometry">
            <mxPoint x="55" y="540" as="sourcePoint" />
            <mxPoint x="191" y="540" as="targetPoint" />
            <Array as="points">
              <mxPoint x="130" y="540" />
            </Array>
          </mxGeometry>
        </mxCell>
        <mxCell id="PU4CuzWwjXZ-5LBa22X8-3" value="init led" style="html=1;verticalAlign=bottom;endArrow=block;labelBackgroundColor=none;fontFamily=Verdana;fontSize=12;edgeStyle=elbowEdgeStyle;elbow=vertical;exitX=1.176;exitY=0.023;exitDx=0;exitDy=0;exitPerimeter=0;" parent="1" source="7baba1c4bc27f4b0-9" target="7baba1c4bc27f4b0-5" edge="1">
          <mxGeometry x="-0.1839" relative="1" as="geometry">
            <mxPoint x="155" y="180" as="sourcePoint" />
            <mxPoint x="285" y="180" as="targetPoint" />
            <Array as="points">
              <mxPoint x="510" y="160" />
            </Array>
            <mxPoint as="offset" />
          </mxGeometry>
        </mxCell>
        <mxCell id="PU4CuzWwjXZ-5LBa22X8-8" value="" style="endArrow=classic;html=1;rounded=0;exitX=0.117;exitY=1.003;exitDx=0;exitDy=0;exitPerimeter=0;dashed=1;" parent="1" source="PU4CuzWwjXZ-5LBa22X8-4" edge="1">
          <mxGeometry width="50" height="50" relative="1" as="geometry">
            <mxPoint x="620" y="200" as="sourcePoint" />
            <mxPoint x="750" y="210" as="targetPoint" />
          </mxGeometry>
        </mxCell>
        <mxCell id="PU4CuzWwjXZ-5LBa22X8-9" value="init done" style="edgeLabel;html=1;align=center;verticalAlign=middle;resizable=0;points=[];" parent="PU4CuzWwjXZ-5LBa22X8-8" vertex="1" connectable="0">
          <mxGeometry x="-0.1941" y="1" relative="1" as="geometry">
            <mxPoint as="offset" />
          </mxGeometry>
        </mxCell>
        <mxCell id="PU4CuzWwjXZ-5LBa22X8-10" value="init done" style="endArrow=classic;html=1;rounded=0;dashed=1;" parent="1" source="7baba1c4bc27f4b0-5" target="7baba1c4bc27f4b0-8" edge="1">
          <mxGeometry x="0.1365" width="50" height="50" relative="1" as="geometry">
            <mxPoint x="490" y="240" as="sourcePoint" />
            <mxPoint x="540" y="190" as="targetPoint" />
            <Array as="points">
              <mxPoint x="420" y="220" />
              <mxPoint x="260" y="220" />
            </Array>
            <mxPoint as="offset" />
          </mxGeometry>
        </mxCell>
        <mxCell id="PU4CuzWwjXZ-5LBa22X8-17" value="init done" style="endArrow=classic;html=1;rounded=0;dashed=1;" parent="1" source="PU4CuzWwjXZ-5LBa22X8-11" edge="1">
          <mxGeometry width="50" height="50" relative="1" as="geometry">
            <mxPoint x="730" y="310" as="sourcePoint" />
            <mxPoint x="150" y="310" as="targetPoint" />
            <Array as="points">
              <mxPoint x="420" y="310" />
              <mxPoint x="260" y="310" />
            </Array>
          </mxGeometry>
        </mxCell>
        <mxCell id="PU4CuzWwjXZ-5LBa22X8-12" value="init button" style="html=1;verticalAlign=bottom;endArrow=block;labelBackgroundColor=none;fontFamily=Verdana;fontSize=12;edgeStyle=elbowEdgeStyle;elbow=vertical;exitX=1.2;exitY=0.217;exitDx=0;exitDy=0;exitPerimeter=0;" parent="1" source="7baba1c4bc27f4b0-9" target="PU4CuzWwjXZ-5LBa22X8-11" edge="1">
          <mxGeometry x="0.0466" relative="1" as="geometry">
            <mxPoint x="155" y="271" as="sourcePoint" />
            <mxPoint x="728" y="270" as="targetPoint" />
            <Array as="points">
              <mxPoint x="410" y="250" />
              <mxPoint x="508" y="270" />
            </Array>
            <mxPoint as="offset" />
          </mxGeometry>
        </mxCell>
        <mxCell id="PU4CuzWwjXZ-5LBa22X8-21" value="init timer&lt;br&gt;set timer call back" style="endArrow=classic;html=1;rounded=0;" parent="1" target="7baba1c4bc27f4b0-3" edge="1">
          <mxGeometry x="0.0031" y="10" width="50" height="50" relative="1" as="geometry">
            <mxPoint x="290" y="350" as="sourcePoint" />
            <mxPoint x="415" y="350" as="targetPoint" />
            <mxPoint as="offset" />
          </mxGeometry>
        </mxCell>
        <mxCell id="PU4CuzWwjXZ-5LBa22X8-22" value="" style="endArrow=classic;html=1;rounded=0;exitX=0.2;exitY=0.82;exitDx=0;exitDy=0;exitPerimeter=0;dashed=1;" parent="1" source="PU4CuzWwjXZ-5LBa22X8-20" target="7baba1c4bc27f4b0-2" edge="1">
          <mxGeometry width="50" height="50" relative="1" as="geometry">
            <mxPoint x="446" y="390" as="sourcePoint" />
            <mxPoint x="310" y="390" as="targetPoint" />
            <Array as="points">
              <mxPoint x="400" y="380" />
            </Array>
          </mxGeometry>
        </mxCell>
        <mxCell id="PU4CuzWwjXZ-5LBa22X8-23" value="init done" style="edgeLabel;html=1;align=center;verticalAlign=middle;resizable=0;points=[];" parent="PU4CuzWwjXZ-5LBa22X8-22" vertex="1" connectable="0">
          <mxGeometry x="-0.1941" y="1" relative="1" as="geometry">
            <mxPoint x="-13" as="offset" />
          </mxGeometry>
        </mxCell>
        <mxCell id="PU4CuzWwjXZ-5LBa22X8-42" style="edgeStyle=orthogonalEdgeStyle;rounded=0;orthogonalLoop=1;jettySize=auto;html=1;" parent="1" edge="1">
          <mxGeometry relative="1" as="geometry">
            <mxPoint x="290" y="520" as="sourcePoint" />
            <mxPoint x="301" y="540" as="targetPoint" />
            <Array as="points">
              <mxPoint x="350" y="520" />
              <mxPoint x="350" y="540" />
            </Array>
          </mxGeometry>
        </mxCell>
        <mxCell id="PU4CuzWwjXZ-5LBa22X8-43" value="save task to DB" style="edgeLabel;html=1;align=center;verticalAlign=middle;resizable=0;points=[];" parent="PU4CuzWwjXZ-5LBa22X8-42" vertex="1" connectable="0">
          <mxGeometry x="-0.404" y="-1" relative="1" as="geometry">
            <mxPoint x="15" y="-10" as="offset" />
          </mxGeometry>
        </mxCell>
        <mxCell id="PU4CuzWwjXZ-5LBa22X8-44" style="edgeStyle=orthogonalEdgeStyle;rounded=0;orthogonalLoop=1;jettySize=auto;html=1;dashed=1;exitX=0.886;exitY=0.771;exitDx=0;exitDy=0;exitPerimeter=0;" parent="1" source="PU4CuzWwjXZ-5LBa22X8-41" edge="1">
          <mxGeometry relative="1" as="geometry">
            <mxPoint x="290" y="580" as="targetPoint" />
            <mxPoint x="290.97" y="560" as="sourcePoint" />
            <Array as="points">
              <mxPoint x="350" y="561" />
              <mxPoint x="350" y="580" />
            </Array>
          </mxGeometry>
        </mxCell>
        <mxCell id="PU4CuzWwjXZ-5LBa22X8-45" value="save done" style="edgeLabel;html=1;align=center;verticalAlign=middle;resizable=0;points=[];" parent="PU4CuzWwjXZ-5LBa22X8-44" vertex="1" connectable="0">
          <mxGeometry x="0.3756" y="1" relative="1" as="geometry">
            <mxPoint x="13" y="9" as="offset" />
          </mxGeometry>
        </mxCell>
        <mxCell id="PU4CuzWwjXZ-5LBa22X8-47" value="" style="html=1;points=[];perimeter=orthogonalPerimeter;rounded=0;shadow=0;comic=0;labelBackgroundColor=none;strokeWidth=1;fontFamily=Verdana;fontSize=12;align=center;fillColor=#f8cecc;strokeColor=#b85450;" parent="1" vertex="1">
          <mxGeometry x="291" y="640" width="10" height="40" as="geometry" />
        </mxCell>
        <mxCell id="PU4CuzWwjXZ-5LBa22X8-48" style="edgeStyle=orthogonalEdgeStyle;rounded=0;orthogonalLoop=1;jettySize=auto;html=1;" parent="1" edge="1">
          <mxGeometry relative="1" as="geometry">
            <mxPoint x="290" y="630" as="sourcePoint" />
            <mxPoint x="301" y="650" as="targetPoint" />
            <Array as="points">
              <mxPoint x="350" y="630" />
              <mxPoint x="350" y="650" />
            </Array>
          </mxGeometry>
        </mxCell>
        <mxCell id="PU4CuzWwjXZ-5LBa22X8-49" value="save task to DB" style="edgeLabel;html=1;align=center;verticalAlign=middle;resizable=0;points=[];" parent="PU4CuzWwjXZ-5LBa22X8-48" vertex="1" connectable="0">
          <mxGeometry x="-0.404" y="-1" relative="1" as="geometry">
            <mxPoint x="15" y="-10" as="offset" />
          </mxGeometry>
        </mxCell>
        <mxCell id="PU4CuzWwjXZ-5LBa22X8-50" style="edgeStyle=orthogonalEdgeStyle;rounded=0;orthogonalLoop=1;jettySize=auto;html=1;dashed=1;exitX=0.886;exitY=0.771;exitDx=0;exitDy=0;exitPerimeter=0;" parent="1" source="PU4CuzWwjXZ-5LBa22X8-47" edge="1">
          <mxGeometry relative="1" as="geometry">
            <mxPoint x="290" y="690" as="targetPoint" />
            <mxPoint x="290.97" y="670" as="sourcePoint" />
            <Array as="points">
              <mxPoint x="350" y="671" />
              <mxPoint x="350" y="690" />
            </Array>
          </mxGeometry>
        </mxCell>
        <mxCell id="PU4CuzWwjXZ-5LBa22X8-51" value="save done" style="edgeLabel;html=1;align=center;verticalAlign=middle;resizable=0;points=[];" parent="PU4CuzWwjXZ-5LBa22X8-50" vertex="1" connectable="0">
          <mxGeometry x="0.3756" y="1" relative="1" as="geometry">
            <mxPoint x="13" y="9" as="offset" />
          </mxGeometry>
        </mxCell>
      </root>
    </mxGraphModel>
  </diagram>
</mxfile>
